<mxfile host="65bd71144e">
    <diagram id="gYplu0gBrDNn6FZVZYES" name="Page-1">
        <mxGraphModel dx="667" dy="566" grid="1" gridSize="10" guides="1" tooltips="1" connect="1" arrows="1" fold="1" page="1" pageScale="1" pageWidth="827" pageHeight="1169" math="0" shadow="1">
            <root>
                <mxCell id="0"/>
                <mxCell id="1" parent="0"/>
                <mxCell id="9" value="" style="edgeStyle=none;html=1;fontSize=16;entryX=0.5;entryY=0;entryDx=0;entryDy=0;strokeColor=#FF66B3;" parent="1" source="2" target="22" edge="1">
                    <mxGeometry relative="1" as="geometry"/>
                </mxCell>
                <mxCell id="2" value="&lt;font style=&quot;font-size: 16px;&quot;&gt;Start&lt;/font&gt;" style="html=1;dashed=0;whitespace=wrap;shape=mxgraph.dfd.start;fillColor=#f5f5f5;fontColor=#333333;strokeColor=#666666;fontSize=16;" parent="1" vertex="1">
                    <mxGeometry x="374" y="49" width="80" height="30" as="geometry"/>
                </mxCell>
                <mxCell id="10" value="" style="edgeStyle=none;html=1;fontSize=16;strokeColor=#FF66B3;" parent="1" source="3" target="4" edge="1">
                    <mxGeometry relative="1" as="geometry"/>
                </mxCell>
                <mxCell id="3" value="&lt;span class=&quot;nodeLabel&quot; style=&quot;font-size: 16px;&quot;&gt;Customer provide details. Fullname, Address, Phone Number, &lt;br style=&quot;font-size: 16px;&quot;&gt; Email Address, Profile Pic, Milk or other products, &lt;br style=&quot;font-size: 16px;&quot;&gt; Subscription Period and Quantity&lt;/span&gt;" style="html=1;dashed=0;whitespace=wrap;fillColor=#dae8fc;strokeColor=#6c8ebf;fontSize=16;" parent="1" vertex="1">
                    <mxGeometry x="142" y="236" width="544" height="59" as="geometry"/>
                </mxCell>
                <mxCell id="12" value="" style="edgeStyle=none;html=1;fontSize=16;strokeColor=#FF66B3;exitX=1;exitY=1;exitDx=0;exitDy=0;" parent="1" source="4" target="6" edge="1">
                    <mxGeometry relative="1" as="geometry"/>
                </mxCell>
                <mxCell id="19" value="Yes" style="edgeLabel;html=1;align=center;verticalAlign=middle;resizable=0;points=[];fontSize=16;" parent="12" vertex="1" connectable="0">
                    <mxGeometry x="-0.0016" y="1" relative="1" as="geometry">
                        <mxPoint as="offset"/>
                    </mxGeometry>
                </mxCell>
                <mxCell id="4" value="&lt;span class=&quot;nodeLabel&quot; style=&quot;font-size: 16px;&quot;&gt;Administrator checks &lt;br style=&quot;font-size: 16px;&quot;&gt; if customer details &lt;br style=&quot;font-size: 16px;&quot;&gt; already exists in records&lt;/span&gt;" style="shape=rhombus;html=1;dashed=0;whitespace=wrap;perimeter=rhombusPerimeter;fillColor=#d5e8d4;strokeColor=#82b366;fontSize=16;" parent="1" vertex="1">
                    <mxGeometry x="300" y="344" width="230" height="186" as="geometry"/>
                </mxCell>
                <mxCell id="20" value="" style="edgeStyle=none;html=1;fontSize=16;strokeColor=#FF66B3;" parent="1" source="5" target="7" edge="1">
                    <mxGeometry relative="1" as="geometry"/>
                </mxCell>
                <mxCell id="5" value="&lt;span class=&quot;nodeLabel&quot; style=&quot;font-size: 16px;&quot;&gt;Administrator creates new customer record &lt;br style=&quot;font-size: 16px;&quot;&gt; in journal with provided details&lt;/span&gt;" style="html=1;dashed=0;whitespace=wrap;fillColor=#dae8fc;strokeColor=#6c8ebf;fontSize=16;" parent="1" vertex="1">
                    <mxGeometry x="90" y="573" width="314" height="50" as="geometry"/>
                </mxCell>
                <mxCell id="15" value="" style="edgeStyle=none;html=1;fontSize=16;strokeColor=#FF66B3;" parent="1" source="6" target="7" edge="1">
                    <mxGeometry relative="1" as="geometry"/>
                </mxCell>
                <mxCell id="6" value="&lt;span class=&quot;nodeLabel&quot; style=&quot;font-size: 16px;&quot;&gt;Administrator updates existing customer record &lt;br style=&quot;font-size: 16px;&quot;&gt; in journal with provided details&lt;/span&gt;" style="html=1;dashed=0;whitespace=wrap;fillColor=#dae8fc;strokeColor=#6c8ebf;fontSize=16;" parent="1" vertex="1">
                    <mxGeometry x="424" y="573" width="346" height="50" as="geometry"/>
                </mxCell>
                <mxCell id="16" value="" style="edgeStyle=none;html=1;fontSize=16;strokeColor=#FF66B3;" parent="1" edge="1">
                    <mxGeometry relative="1" as="geometry">
                        <mxPoint x="414.3669724770642" y="773" as="sourcePoint"/>
                        <mxPoint x="414.8623853211009" y="827" as="targetPoint"/>
                    </mxGeometry>
                </mxCell>
                <mxCell id="7" value="&lt;span class=&quot;nodeLabel&quot; style=&quot;font-size: 16px&quot;&gt;Customer details are recorded in journal and &lt;br&gt;ready to get map to delivery squad for delivery &lt;br&gt;of Milk or other products&lt;/span&gt;" style="shape=parallelogram;perimeter=parallelogramPerimeter;whiteSpace=wrap;html=1;dashed=0;fillColor=#e1d5e7;strokeColor=#9673a6;fontSize=16;" parent="1" vertex="1">
                    <mxGeometry x="144" y="693" width="550" height="80" as="geometry"/>
                </mxCell>
                <mxCell id="8" value="Finish" style="html=1;dashed=0;whitespace=wrap;shape=mxgraph.dfd.start;fillColor=#f5f5f5;fontColor=#333333;strokeColor=#666666;fontSize=16;" parent="1" vertex="1">
                    <mxGeometry x="374" y="827" width="80" height="30" as="geometry"/>
                </mxCell>
                <mxCell id="13" value="No" style="edgeStyle=none;html=1;entryX=0.577;entryY=0;entryDx=0;entryDy=0;entryPerimeter=0;fontSize=16;strokeColor=#FF66B3;exitX=0;exitY=1;exitDx=0;exitDy=0;" parent="1" source="4" target="5" edge="1">
                    <mxGeometry relative="1" as="geometry">
                        <mxPoint x="370" y="500" as="sourcePoint"/>
                        <mxPoint x="543.8850574712644" y="583" as="targetPoint"/>
                    </mxGeometry>
                </mxCell>
                <mxCell id="23" value="" style="edgeStyle=none;html=1;fontSize=16;strokeColor=#FF66B3;" parent="1" source="22" target="3" edge="1">
                    <mxGeometry relative="1" as="geometry"/>
                </mxCell>
                <mxCell id="22" value="&lt;span class=&quot;nodeLabel&quot; style=&quot;font-size: 16px;&quot;&gt;Customer requests for enrollment and subscription&lt;/span&gt;" style="html=1;dashed=0;whitespace=wrap;fillColor=#dae8fc;strokeColor=#6c8ebf;fontSize=16;" parent="1" vertex="1">
                    <mxGeometry x="195" y="128" width="439" height="50" as="geometry"/>
                </mxCell>
            </root>
        </mxGraphModel>
    </diagram>
</mxfile>